<svg width="16" height="16" viewBox="0 0 256 256" fill="none" xmlns="http://www.w3.org/2000/svg">
<style>
        #fc-upper, #fc-lower {
            fill: #1CAB4F;
        }

        #fc-plus {
            fill: #3F3F46;
        }

        @media (prefers-color-scheme: dark) {
            #fc-upper, #fc-lower {
                fill: #20C45D;
            }

            #fc-plus {
                fill: #F4F4F5;
            }
        }
    </style>
<path id="fc-plus" d="M171.692 137.77C171.692 137.218 171.245 136.77 170.692 136.77H156.692C156.14 136.77 155.692 136.322 155.692 135.77V121.77C155.692 121.218 156.14 120.77 156.692 120.77H170.692C171.245 120.77 171.692 120.322 171.692 119.77V104.539C171.692 103.987 172.14 103.539 172.692 103.539H186.692C187.245 103.539 187.692 103.987 187.692 104.539V119.77C187.692 120.322 188.14 120.77 188.692 120.77H202.692C203.245 120.77 203.692 121.218 203.692 121.77V135.77C203.692 136.322 203.245 136.77 202.692 136.77H188.692C188.14 136.77 187.692 137.218 187.692 137.77V153.001C187.692 153.553 187.245 154.001 186.692 154.001H172.692C172.14 154.001 171.692 153.553 171.692 153.001V137.77Z" fill="#3F3F46"/>
<path id="fc-upper" d="M24.6154 50C11.0207 50 0 61.0207 0 74.6154V205.077C0 205.757 0.551035 206.308 1.23077 206.308H29.5385C30.2182 206.308 30.7692 205.757 30.7692 205.077V146C30.7692 145.32 31.3203 144.769 32 144.769H91.0769C91.7567 144.769 92.3077 144.218 92.3077 143.538V114C92.3077 113.32 91.7567 112.769 91.0769 112.769H32C31.3203 112.769 30.7692 112.218 30.7692 111.538V83.2308C30.7692 82.551 31.3203 82 32 82H224C224.68 82 225.231 82.551 225.231 83.2308V101.692C225.231 102.372 225.782 102.923 226.462 102.923H254.769C255.449 102.923 256 102.372 256 101.692V74.6154C256 61.0207 244.979 50 231.385 50H24.6154Z" fill="#1CAB4F"/>
<path id="fc-lower" d="M256 155.846C256 155.166 255.449 154.615 254.769 154.615H226.462C225.782 154.615 225.231 155.166 225.231 155.846V174.308C225.231 174.987 224.68 175.538 224 175.538H135.385C134.705 175.538 134.154 174.987 134.154 174.308V114C134.154 113.32 133.603 112.769 132.923 112.769H103.385C102.705 112.769 102.154 113.32 102.154 114V181.692C102.154 195.287 113.175 206.308 126.769 206.308H231.385C244.979 206.308 256 195.287 256 181.692V155.846Z" fill="#1CAB4F"/>
</svg>
